<svg clip-rule="evenodd" fill-rule="evenodd" stroke-linejoin="round" stroke-miterlimit="2" viewBox="15.448 169.368 1005.4150000000001 366.9740000000001" xmlns="http://www.w3.org/2000/svg" width="2500" height="499"><g fill="#1f70c1"><path d="M192.453 512.354H15.448v23.988h177zm0-49.02H15.448v23.988h177zM67.544 415.709h74.939v23.804h-74.97zm0-49.134h74.939v23.803h-74.97zm-.027-49.095h74.939v23.804h-74.97zm.027-49.055h74.939v23.803h-74.97zm124.909-48.091H15.448v23.988h177zm0-49.02H15.448v23.988h177zM219.503 536.264h196.146c23.702-1.044 45.466-14.65 54.81-23.919H219.396zm0-48.964h272.816c5.244-6.336 8.045-13.477 8.045-23.919H219.396zm50.968-71.591h74.938v23.804h-74.97zm151.971 0h76.151c2.121 4.933 4.206 6.617 4.792 23.804H422.41zm-151.893-49.024h196.102c13.361 9.758 18.562 18.387 21.457 23.735H270.442zm0-25.364h196.102c13.361-9.833 18.562-18.529 21.457-23.918H270.442zm-.078-72.896h74.938v23.803h-74.97zm151.971 0h81.099c-1.319 7.483-.523 12.935-5.365 23.803H422.41zm-202.939-48.109h272.816c5.244 6.336 8.045 13.476 8.045 23.918H219.396zm0-48.965h196.146c23.702 1.044 45.466 14.65 54.81 23.919H219.396zM717.421 512.35h18.032s-8.07 23.94-8.074 23.94h-1.001zm-194.986.039h126.006v23.804H522.404zm279.002 0h126.005v23.804H801.405zm-101.86-48.999h52.864s-8.07 23.94-8.074 23.94h-35.833zm-177.142-.026h126.006v23.803H522.404zm279.002 0h126.005v23.803H801.405zm-118.956-47.693h87.011s-8.071 23.939-8.074 23.939h-69.98zm-108.978.048h74.938v23.804h-74.97zm227.964-.202h74.939v23.804h-74.97zm-136.892-49.133h122.887s-8.071 23.94-8.074 23.94H673.532zm-91.072-.011h74.938v23.804h-74.97zm227.964-.202h74.939v23.804h-74.97zm-228-48.663h144.255l8.282 20.823 8.489-20.819h142.976v23.791h-76.011v-12.975l-5.965 13.006H654.479l-5.98-12.993v12.97h-75.02zm-.016-49.091v23.993h135.051l-8.374-23.987zm303.946 0v23.993H742.346l8.374-23.987zm-354.97-48.077v23.992H691.66l-8.374-23.986zm404.998 0v23.992H758.192l8.374-23.986zm-404.968-49.007v23.993h151.989l-8.996-23.987zm404.973 0v23.993H775.442l8.996-23.987z"/><path d="M994.37 169.368c4.542 0 8.9 1.135 13.073 3.407 4.174 2.271 7.454 5.528 9.84 9.77 2.387 4.243 3.58 8.681 3.58 13.316 0 4.612-1.17 9.01-3.511 13.195-2.34 4.185-5.603 7.447-9.788 9.788-4.185 2.34-8.583 3.51-13.194 3.51-4.612 0-9.01-1.17-13.195-3.51-4.185-2.341-7.448-5.603-9.788-9.788-2.341-4.185-3.511-8.583-3.511-13.195 0-4.635 1.193-9.073 3.58-13.316 2.386-4.242 5.666-7.499 9.84-9.77 4.173-2.272 8.531-3.407 13.074-3.407zm.034 5.188c-3.643 0-7.136.91-10.48 2.732-3.343 1.822-5.977 4.439-7.903 7.851-1.925 3.413-2.888 6.987-2.888 10.722 0 3.712.94 7.252 2.819 10.618 1.879 3.367 4.502 5.995 7.869 7.886 3.366 1.891 6.894 2.836 10.583 2.836 3.712 0 7.246-.945 10.601-2.836s5.978-4.519 7.868-7.886c1.891-3.366 2.836-6.906 2.836-10.618 0-3.735-.962-7.309-2.888-10.722-1.925-3.412-4.565-6.029-7.92-7.851s-6.854-2.732-10.497-2.732zm-12.001 35.486v-28.119h5.706c5.35 0 8.347.023 8.993.069 1.891.161 3.361.536 4.41 1.124s1.925 1.487 2.628 2.698c.703 1.21 1.055 2.553 1.055 4.029 0 2.029-.663 3.764-1.989 5.205-1.325 1.441-3.187 2.335-5.585 2.681.853.323 1.51.674 1.971 1.055.461.38 1.095 1.101 1.902 2.161.208.277.9 1.418 2.076 3.424l3.32 5.673h-7.056l-2.352-4.566c-1.591-3.067-2.905-4.998-3.943-5.793-1.037-.796-2.351-1.193-3.942-1.193h-1.488v11.552zm5.706-15.979h2.318c3.297 0 5.343-.127 6.139-.381.795-.254 1.424-.697 1.885-1.331a3.586 3.586 0 0 0 .691-2.162c0-.784-.224-1.482-.674-2.093s-1.089-1.049-1.92-1.314c-.83-.265-2.87-.398-6.121-.398h-2.318z" fill-rule="nonzero"/></g></svg>